<?xml version="1.0" encoding="UTF-8"?>
<svg xmlns="http://www.w3.org/2000/svg" xmlns:xlink="http://www.w3.org/1999/xlink" version="1.2" >
<font id="Qanaya Regular Demo">
<font-face  font-family="Qanaya" units-per-em="1024" ascent="936" descent="-280" font-style="normal" font-weight="400" font-stretch="normal" cap-height="928" x-height="468" underline-position="-125" underline-thickness="50" />
<missing-glyph  horiz-adv-x="512" d="" />
<glyph glyph-name="space" unicode="&#x20;" horiz-adv-x="256" d="" />
<glyph glyph-name="zero" unicode="0" horiz-adv-x="610" d="M146 250 Q147 202 160 159 Q173 116 194.5 84 Q216 52 244.5 33.5 Q273 15 305 15 Q337 15 365 33.5 Q393 52 413.5 84 Q434 116 445.5 159 Q457 202 456 250 Q455 298 442 341 Q429 384 408 416 Q387 448 358.5 466.5 Q330 485 298 485 Q267 485 238.5 466.5 Q210 448 189 416 Q168 384 156.5 341 Q145 298 146 250 Z M46 250 Q45 303 64.5 349 Q84 395 118 430 Q152 465 198.5 485 Q245 505 297 505 Q350 505 396.5 485 Q443 465 478 430 Q513 395 534 349 Q555 303 556 250 Q557 198 537.5 151.5 Q518 105 484 70 Q450 35 404 15 Q358 -5 305 -5 Q253 -5 206 15 Q159 35 124 70 Q89 105 68 151.5 Q47 198 46 250 Z " />
<glyph glyph-name="one" unicode="1" horiz-adv-x="326" d="M54 6 L63 6 Q86 6 101 25 Q116 44 116 71 Q116 106 115.5 152 Q115 198 114.5 247.5 Q114 297 113 346.5 Q112 396 111 437 Q108 461 93 477 Q78 493 58 493 L49 493 L49 494 Q49 496 48 497 L48 500 L264 500 L264 497 Q265 493 262 493 L256 493 Q233 493 217 474 Q201 455 202 428 Q203 387 204 339 Q205 291 205.5 243 Q206 195 206.5 150.5 Q207 106 207 72 Q207 45 223 26 Q239 7 262 7 L271 7 L271 0 L54 0 L54 6 Z " />
<glyph glyph-name="two" unicode="2" horiz-adv-x="485" d="M457 153 L445 0 L25 0 L25 20 Q88 62 144 97.5 Q200 133 241.5 167.5 Q283 202 307 239 Q331 276 330 322 Q330 346 321 367.5 Q312 389 297 404.5 Q282 420 262 429.5 Q242 439 219 439 Q196 439 173.5 432 Q151 425 131.5 413.5 Q112 402 97.5 386 Q83 370 76 352 L65 359 Q76 389 97.5 415.5 Q119 442 146 462 Q173 482 203.5 493.5 Q234 505 263 505 Q297 505 327 493 Q357 481 379.5 460.5 Q402 440 415.5 412.5 Q429 385 430 353 Q430 322 410 291.5 Q390 261 355 229 Q320 197 271 162.5 Q222 128 164 90 L380 90 Q407 90 427 105.5 Q447 121 449 144 L450 153 L457 153 Z " />
<glyph glyph-name="three" unicode="3" horiz-adv-x="465" d="M319 36 Q319 69 305.5 94.5 Q292 120 269.5 137 Q247 154 218.5 162.5 Q190 171 161 171 Q126 171 100 161 L99 176 Q125 186 157 201.5 Q189 217 217.5 238.5 Q246 260 265 287 Q284 314 283 346 Q283 365 274.5 382 Q266 399 251.5 411.5 Q237 424 218 431.5 Q199 439 178 439 Q153 439 128 433.5 Q103 428 81 418.5 Q59 409 41 396.5 Q23 384 13 370 L2 377 Q19 403 45.5 426.5 Q72 450 102 467.5 Q132 485 163.5 495 Q195 505 223 505 Q253 505 280 494.5 Q307 484 328 466.5 Q349 449 361 425.5 Q373 402 373 375 Q373 356 361.5 334.5 Q350 313 329 291 Q308 269 278.5 248 Q249 227 214 209 Q255 206 291.5 191.5 Q328 177 355 154.5 Q382 132 398 103 Q414 74 414 41 Q415 -8 385 -52.5 Q355 -97 302 -131.5 Q249 -166 178 -188.5 Q107 -211 27 -215 L26 -200 Q87 -197 141 -176.5 Q195 -156 235 -124 Q275 -92 297.5 -50.5 Q320 -9 319 36 Z " />
<glyph glyph-name="four" unicode="4" horiz-adv-x="491" d="M9 14 Q57 83 98.5 144 Q140 205 177 259 Q209 305 239 349 Q269 393 293 427.5 Q317 462 332 483 Q347 504 347 504 L362 504 L370 40 L480 40 L481 0 L371 0 Q372 -45 372.5 -83.5 Q373 -122 374 -150 L284 -150 Q283 -122 282.5 -83.5 Q282 -45 281 0 L10 0 L10 15 L9 14 Z M279 39 Q278 96 277 151.5 Q276 207 275.5 251 Q275 295 275 323 Q275 351 275 352 Q248 313 217.5 269 Q187 225 157.5 182 Q128 139 102.5 102 Q77 65 59 39 L279 39 Z " />
<glyph glyph-name="five" unicode="5" horiz-adv-x="451" d="M311 500 Q340 500 365 517.5 Q390 535 393 563 L400 563 Q395 546 389 524.5 Q383 503 377 483 L353 405 L100 405 Q98 373 96 341 Q94 309 92 280 L157 280 Q206 280 249.5 264 Q293 248 326 221 Q359 194 378.5 157.5 Q398 121 399 79 Q400 28 371.5 -18 Q343 -64 293 -99.5 Q243 -135 176 -157 Q109 -179 33 -182 L31 -165 Q89 -163 140 -145 Q191 -127 228.5 -98 Q266 -69 287.5 -30.5 Q309 8 308 50 Q307 97 281.5 124.5 Q256 152 218.5 167 Q181 182 139 186.5 Q97 191 62 191 Q64 223 66 254 Q68 285 70 314 Q72 339 73 365 Q74 391 75 416 Q76 441 76.5 462.5 Q77 484 77 500 L311 500 Z " />
<glyph glyph-name="six" unicode="6" horiz-adv-x="570" d="M486 701 Q418 699 358 668 Q298 637 253.5 586 Q209 535 184 468 Q159 401 160 327 L160 314 Q183 366 223.5 398 Q264 430 313 430 Q378 430 423 398 Q468 366 491.5 317.5 Q515 269 516 212.5 Q517 156 493 107.5 Q469 59 419 27 Q369 -5 291 -5 Q243 -5 201 18.5 Q159 42 127 83 Q95 124 76 178.5 Q57 233 56 295 Q55 379 88 454 Q121 529 179 586 Q237 643 316 677.5 Q395 712 485 715 L486 701 Z M298 406 Q270 406 245 390.5 Q220 375 201 348.5 Q182 322 170.5 286.5 Q159 251 159 211 Q159 172 170.5 137.5 Q182 103 201.5 77 Q221 51 247 36 Q273 21 301 21 Q345 21 372 49.5 Q399 78 411.5 121 Q424 164 422 213.5 Q420 263 405 306 Q390 349 363 377.5 Q336 406 298 406 Z " />
<glyph glyph-name="seven" unicode="7" horiz-adv-x="442" d="M11 345 L22 500 L417 500 L425 491 Q374 332 323.5 175.5 Q273 19 222 -140 L122 -140 L383 408 L88 408 Q61 408 41 392.5 Q21 377 19 354 L18 345 L11 345 Z " />
<glyph glyph-name="eight" unicode="8" horiz-adv-x="540" d="M332 353 Q365 335 393.5 313.5 Q422 292 443 269 Q464 246 476 222.5 Q488 199 488 177 Q489 139 472.5 105.5 Q456 72 427 47.5 Q398 23 358.5 8.5 Q319 -6 274 -6 Q229 -6 189 7 Q149 20 119 42.5 Q89 65 71.5 95.5 Q54 126 54 160 Q53 187 63.5 212 Q74 237 93 257.5 Q112 278 138.5 293 Q165 308 196 315 Q170 331 148 352 Q126 373 109.5 396 Q93 419 84 443.5 Q75 468 75 491 Q74 527 88 558.5 Q102 590 127.5 614 Q153 638 187 651.5 Q221 665 260 665 Q298 665 332.5 653.5 Q367 642 393 622 Q419 602 434.5 575.5 Q450 549 450 519 Q450 465 417 420.5 Q384 376 331 353 L332 353 Z M320 359 Q346 378 362 416.5 Q378 455 376 503 Q376 532 366.5 558 Q357 584 340.5 603.5 Q324 623 302 634 Q280 645 256 645 Q234 645 214.5 635.5 Q195 626 180.5 609.5 Q166 593 158 571.5 Q150 550 150 525 Q150 504 160 482 Q170 460 187.5 439.5 Q205 419 228 402.5 Q251 386 277 377 Q296 370 320 359 Z M138 176 Q139 143 150.5 113.5 Q162 84 181 62 Q200 40 225 27 Q250 14 278 14 Q305 14 328 24.5 Q351 35 368.5 53 Q386 71 395.5 95.5 Q405 120 405 147 Q405 165 392 185.5 Q379 206 357.5 225.5 Q336 245 307.5 262 Q279 279 247 291 Q229 297 211 306 Q178 289 157.5 254.5 Q137 220 138 175 L138 176 Z " />
<glyph glyph-name="nine" unicode="9" horiz-adv-x="570" d="M76 -200 Q145 -198 205 -167 Q265 -136 309 -85 Q353 -34 378 33 Q403 100 402 174 L402 186 Q379 134 339 102 Q299 70 250 70 Q185 70 139.5 102 Q94 134 70.5 182.5 Q47 231 46.5 287.5 Q46 344 70 392.5 Q94 441 144 473 Q194 505 271 505 Q319 505 361 481.5 Q403 458 435.5 417 Q468 376 487 321.5 Q506 267 507 205 Q508 121 475 46 Q442 -29 383.5 -86 Q325 -143 246 -177.5 Q167 -212 77 -215 L76 -200 Z M265 95 Q294 95 318.5 110.5 Q343 126 362 152.5 Q381 179 392 214.5 Q403 250 404 290 Q403 329 391.5 363.5 Q380 398 360.5 424 Q341 450 316 465 Q291 480 262 480 Q219 480 191.5 451.5 Q164 423 151.5 380 Q139 337 141 287.5 Q143 238 158 195 Q173 152 200 123.5 Q227 95 265 95 Z " />
<glyph glyph-name="A" unicode="A" horiz-adv-x="662" d="M404 7 L426 7 Q451 7 462.5 23.5 Q474 40 467 64 L397 234 L169 234 L120 87 Q109 54 123.5 30.5 Q138 7 170 7 L184 7 L184 0 L-3 0 L-3 7 Q55 7 81 66 L290 675 L316 675 L577 65 Q591 37 611.5 22 Q632 7 656 7 L656 0 L404 0 L404 7 Z M272 541 L178 259 L388 259 L272 541 Z " />
<glyph glyph-name="B" unicode="B" horiz-adv-x="621" d="M29 659 L314 659 Q360 659 400.5 646.5 Q441 634 471.5 613 Q502 592 520 564 Q538 536 538 504 Q539 479 527.5 455.5 Q516 432 494.5 412.5 Q473 393 443.5 378 Q414 363 379 355 Q425 348 465 332 Q505 316 534.5 293.5 Q564 271 581 243 Q598 215 598 183 Q599 145 580 111.5 Q561 78 527 53.5 Q493 29 447.5 14.5 Q402 0 350 0 L40 0 L39 6 L48 6 Q70 6 85 24 Q100 42 101 68 L93 587 Q93 614 77 633 Q61 652 38 652 L29 652 L29 659 Z M205 25 L339 25 Q371 25 399 37.5 Q427 50 448 71.5 Q469 93 480.5 121.5 Q492 150 491 183 Q491 215 474.5 243.5 Q458 272 430.5 293.5 Q403 315 366 327.5 Q329 340 287 340 L200 340 L205 25 Z M199 361 L296 361 Q325 361 351 372.5 Q377 384 396.5 403.5 Q416 423 426.5 449 Q437 475 436 505 Q436 532 426 555.5 Q416 579 399.5 597 Q383 615 361 625 Q339 635 315 635 L195 635 L199 361 Z " />
<glyph glyph-name="C" unicode="C" horiz-adv-x="709" d="M645 184 L647 55 Q596 26 540 11.5 Q484 -3 424 -3 Q352 -3 284 18.5 Q216 40 163 82 Q110 124 77.5 186.5 Q45 249 43 331 Q42 415 72.5 477.5 Q103 540 155 581.5 Q207 623 274 643.5 Q341 664 412 664 Q472 664 530 650 Q588 636 639 607 L641 478 L635 478 Q625 520 604 551 Q583 582 554 602.5 Q525 623 491 633.5 Q457 644 422 644 Q373 644 324.5 624 Q276 604 238 565 Q200 526 177 467 Q154 408 155 330 Q157 249 181 190.5 Q205 132 243.5 94.5 Q282 57 329.5 39 Q377 21 425 21 Q464 21 500.5 32 Q537 43 566 64 Q595 85 614.5 115 Q634 145 639 183 L645 184 Z " />
<glyph glyph-name="D" unicode="D" horiz-adv-x="717" d="M304 660 Q377 660 442 634 Q507 608 555.5 563 Q604 518 633 458 Q662 398 663 330 Q664 262 640 202 Q616 142 573.5 97 Q531 52 473.5 26 Q416 0 350 0 L40 0 L40 7 L49 7 Q71 7 86 25.5 Q101 44 102 70 Q102 71 102 93.5 Q102 116 101.5 152.5 Q101 189 100.5 235.5 Q100 282 99 330 Q97 444 95 588 Q95 615 79 634 Q63 653 40 653 L31 653 L31 660 L304 660 Z M196 635 Q197 593 198 538 Q199 483 200 423.5 Q201 364 202 303 Q203 242 203.5 188.5 Q204 135 204.5 92 Q205 49 205 25 L350 25 Q394 25 433 49 Q472 73 500.5 114.5 Q529 156 545 211.5 Q561 267 560 330 Q559 393 538 448.5 Q517 504 482.5 545.5 Q448 587 402 611 Q356 635 304 635 L196 635 Z " />
<glyph glyph-name="E" unicode="E" horiz-adv-x="603" d="M39 8 L48 8 Q70 8 85 26.5 Q100 45 101 71 L94 589 Q94 616 78 635 Q62 654 39 654 L30 654 L30 661 L492 661 L494 521 L489 521 L486 538 Q482 558 471 575.5 Q460 593 444 606.5 Q428 620 408.5 627.5 Q389 635 368 635 L195 635 Q196 581 197 510.5 Q198 440 200 365 L329 365 Q364 365 391 380.5 Q418 396 422 419 L424 428 L429 428 L431 267 L426 267 L424 278 Q420 304 392.5 321.5 Q365 339 330 339 L200 339 Q201 290 202 242.5 Q203 195 203.5 153.5 Q204 112 204.5 79 Q205 46 205 26 L384 26 Q410 26 432 35 Q454 44 471 60 Q488 76 500.5 96.5 Q513 117 521 140 L526 140 L503 0 L40 0 L39 8 Z " />
<glyph glyph-name="F" unicode="F" horiz-adv-x="530" d="M39 7 L48 7 Q70 7 85 25.5 Q100 44 101 70 L94 588 Q94 618 76.5 635.5 Q59 653 30 653 L30 660 L522 660 L522 520 L517 520 Q514 571 482 602.5 Q450 634 398 634 L195 634 Q196 580 197 508 Q198 436 200 360 L320 360 Q354 360 380 374 Q406 388 414 423 L419 423 L421 262 L416 262 Q409 299 382.5 316.5 Q356 334 320 334 L200 334 L204 72 Q204 45 222.5 26 Q241 7 267 7 L278 7 L278 0 L39 0 L39 7 Z " />
<glyph glyph-name="G" unicode="G" horiz-adv-x="792" d="M616 476 Q610 508 589 534.5 Q568 561 537.5 580.5 Q507 600 469.5 610.5 Q432 621 393 621 Q348 621 305 605.5 Q262 590 228.5 555 Q195 520 175 464.5 Q155 409 156 329 Q157 253 176 196 Q195 139 229 101 Q263 63 310 43.5 Q357 24 414 24 Q474 24 543 45 Q542 72 542 96 Q542 120 542 142 Q542 160 541.5 177.5 Q541 195 540.5 208.5 Q540 222 539.5 230 Q539 238 539 238 Q539 268 521.5 285.5 Q504 303 475 303 L475 310 L693 310 L693 303 Q664 303 648 286 Q632 269 631 240 Q632 200 632.5 166.5 Q633 133 633 108 Q634 94 634 80.5 Q634 67 634 55 Q583 25 526.5 10.5 Q470 -4 413 -4 Q343 -4 277 17.5 Q211 39 160 81 Q109 123 77.5 185.5 Q46 248 44 330 Q43 413 72 475.5 Q101 538 150.5 579.5 Q200 621 264.5 642 Q329 663 399 663 Q456 663 512.5 649 Q569 635 620 606 L622 477 L616 476 Z " />
<glyph glyph-name="H" unicode="H" horiz-adv-x="757" d="M257 653 L248 653 Q226 653 211.5 635.5 Q197 618 195 592 Q196 541 196.5 482 Q197 423 198 360 L544 360 Q544 368 544 388 Q544 408 543.5 433.5 Q543 459 543 486 Q543 513 542.5 536 Q542 559 541.5 573.5 Q541 588 541 588 Q541 615 525 634 Q509 653 486 653 L477 653 L477 660 L706 660 L706 653 L697 653 Q675 653 660.5 635.5 Q646 618 644 592 Q645 534 646 462.5 Q647 391 648 319.5 Q649 248 650 182.5 Q651 117 652 72 Q652 45 668 26 Q684 7 707 7 L716 7 L716 0 L487 0 L487 7 L496 7 Q518 7 533 25.5 Q548 44 549 70 Q548 118 547.5 187 Q547 256 545 334 L199 334 Q201 258 201.5 189 Q202 120 203 72 Q203 45 219 26 Q235 7 258 7 L267 7 L267 0 L39 0 L39 7 L48 7 Q70 7 85 25.5 Q100 44 101 70 Q101 71 101 93.5 Q101 116 100.5 152.5 Q100 189 99.5 235.5 Q99 282 98 330 Q96 444 94 588 Q94 615 78 634 Q62 653 39 653 L30 653 L30 660 L258 660 L257 653 Z " />
<glyph glyph-name="I" unicode="I" horiz-adv-x="308" d="M38 7 L47 7 Q69 7 84 25.5 Q99 44 100 70 Q100 71 100 93.5 Q100 116 99.5 152.5 Q99 189 98.5 235.5 Q98 282 97 330 Q95 444 93 588 Q93 615 77 634 Q61 653 38 653 L29 653 L29 660 L258 660 L258 653 L249 653 Q227 653 212.5 635.5 Q198 618 196 592 Q197 534 198 462.5 Q199 391 200 319.5 Q201 248 202 182.5 Q203 117 204 72 Q204 45 220 26 Q236 7 259 7 L268 7 L268 0 L39 0 L38 7 Z " />
<glyph glyph-name="J" unicode="J" horiz-adv-x="390" d="M341 654 L332 654 Q309 654 294 635 Q279 616 279 589 L282 286 Q287 -10 110 -10 Q91 -10 72 -5.5 Q53 -1 38 7.5 Q23 16 12.5 27 Q2 38 -1 50 Q-5 67 7 78.5 Q19 90 39 90 Q53 90 66.5 78.5 Q80 67 84 50 Q89 33 103.5 21.5 Q118 10 135 10 Q184 10 181 200 L175 588 Q175 615 159 634 Q143 653 120 653 L111 653 L111 660 L341 660 L341 654 Z " />
<glyph glyph-name="K" unicode="K" horiz-adv-x="659" d="M40 7 L49 7 Q71 7 86 25 Q101 43 102 69 L94 588 Q94 615 78 634 Q62 653 39 653 L30 653 L30 660 L258 660 L258 653 L249 653 Q227 653 212 635 Q197 617 196 591 L204 72 Q204 45 220 26 Q236 7 259 7 L268 7 L268 0 L40 0 L40 7 Z M581 653 Q552 653 519 635.5 Q486 618 457 588 L285 406 Q305 380 345.5 327 Q386 274 437 210 Q515 110 565.5 62.5 Q616 15 649 15 L649 -5 L614 -5 Q479 -5 368 138 Q317 202 276.5 255 Q236 308 216 334 L200 355 L430 600 Q449 623 449.5 638 Q450 653 432 653 L424 653 L424 660 L581 660 L581 653 Z " />
<glyph glyph-name="L" unicode="L" horiz-adv-x="603" d="M39 7 L48 7 Q70 7 85 25.5 Q100 44 101 70 Q101 71 101 93.5 Q101 116 100.5 152.5 Q100 189 99.5 235.5 Q99 282 98 330 Q96 444 94 588 Q94 615 78 634 Q62 653 39 653 L30 653 L30 660 L258 660 L258 653 L249 653 Q227 653 212.5 635.5 Q198 618 196 592 Q197 547 198 494 Q199 441 200 385.5 Q201 330 202 275 Q203 220 203.5 172.5 Q204 125 204.5 86.5 Q205 48 205 26 L394 26 Q424 26 444.5 37 Q465 48 479.5 66 Q494 84 503.5 107 Q513 130 520 153 L522 151 Q524 150 525 149 Q526 148 527 147 L503 0 L40 0 L39 7 Z " />
<glyph glyph-name="M" unicode="M" horiz-adv-x="846" d="M33 0 L33 7 L42 7 Q63 7 80 23.5 Q97 40 98 65 Q101 142 103.5 204.5 Q106 267 107.5 327 Q109 387 109.5 449.5 Q110 512 110 588 Q111 615 95.5 634 Q80 653 58 653 L49 653 L49 660 L193 660 L435 118 L643 660 L798 660 L798 653 L789 653 Q768 653 752.5 636.5 Q737 620 739 595 L771 72 Q773 45 789.5 26 Q806 7 829 7 L838 7 L838 0 L609 0 L609 7 L618 7 Q640 7 655.5 24.5 Q671 42 669 68 L646 581 L414 -5 L388 -5 Q325 131 264 264 Q203 397 140 533 L130 87 Q129 54 152 30.5 Q175 7 207 7 L221 7 L221 0 L33 0 Z " />
<glyph glyph-name="N" unicode="N" horiz-adv-x="690" d="M30 653 L30 661 L186 661 L557 145 L550 588 Q549 615 533.5 634 Q518 653 495 653 L486 653 L486 661 L643 661 L643 653 L634 653 Q612 653 596 635 Q580 617 581 591 L590 -20 L553 -20 L124 571 L132 72 Q133 45 148.5 26 Q164 7 187 7 L196 7 L196 0 L40 0 L40 7 L49 7 Q71 7 87 25 Q103 43 102 69 L94 588 Q94 615 78 634 Q62 653 39 653 L30 653 Z " />
<glyph glyph-name="O" unicode="O" horiz-adv-x="759" d="M156 330 Q157 273 173.5 217.5 Q190 162 219 118.5 Q248 75 289 48 Q330 21 379 21 Q429 21 468.5 48 Q508 75 536 118.5 Q564 162 578.5 217.5 Q593 273 592 330 Q591 387 574.5 442.5 Q558 498 529 541.5 Q500 585 459.5 612 Q419 639 369 639 Q320 639 280 612 Q240 585 212 541.5 Q184 498 169.5 442.5 Q155 387 156 330 Z M44 330 Q43 392 65.5 452.5 Q88 513 130.5 560 Q173 607 233.5 636 Q294 665 369 665 Q444 665 505.5 636 Q567 607 610.5 560 Q654 513 678.5 452.5 Q703 392 704 330 Q705 268 682.5 208 Q660 148 617.5 100.5 Q575 53 514.5 24 Q454 -5 379 -5 Q304 -5 242.5 24 Q181 53 137.5 100.5 Q94 148 69.5 208 Q45 268 44 330 Z " />
<glyph glyph-name="P" unicode="P" horiz-adv-x="583" d="M39 7 L48 7 Q70 7 85 25.5 Q100 44 101 70 Q101 71 101 93.5 Q101 116 100.5 152.5 Q100 189 99.5 235.5 Q99 282 98 330 Q96 444 94 588 Q94 615 78 634 Q62 653 39 653 L30 653 L30 660 L321 660 Q369 660 411.5 645.5 Q454 631 485.5 606.5 Q517 582 536 549 Q555 516 556 478 Q556 440 536.5 406.5 Q517 373 482.5 348.5 Q448 324 401.5 309.5 Q355 295 301 295 L201 295 L204 72 Q204 45 220 26 Q236 7 259 7 L268 7 L268 0 L40 0 L39 7 Z M299 319 Q331 319 358 331.5 Q385 344 405 365 Q425 386 436.5 415 Q448 444 448 477 Q447 509 436.5 537.5 Q426 566 409 587.5 Q392 609 369 621.5 Q346 634 320 634 L194 634 Q194 573 195.5 489.5 Q197 406 199 320 L299 319 Z " />
<glyph glyph-name="Q" unicode="Q" horiz-adv-x="759" d="M802 -53 Q788 -70 767 -85.5 Q746 -101 722 -112 Q698 -123 673 -129.5 Q648 -136 626 -136 Q593 -136 557.5 -126 Q522 -116 487 -98 Q452 -80 418 -56 Q384 -32 354 -5 Q284 0 227.5 30.5 Q171 61 130.5 107.5 Q90 154 67.5 211.5 Q45 269 44 329 Q43 391 65.5 451.5 Q88 512 130.5 559 Q173 606 233.5 635 Q294 664 369 664 Q444 664 505.5 635 Q567 606 610.5 559 Q654 512 678.5 451.5 Q703 391 704 329 Q705 268 683.5 209 Q662 150 621.5 103.5 Q581 57 522.5 27.5 Q464 -2 392 -5 Q429 -33 492 -51.5 Q555 -70 636 -70 Q664 -70 690.5 -68 Q717 -66 738.5 -62.5 Q760 -59 775 -54 Q790 -49 794 -44 L803 -52 L802 -53 Z M155 329 Q156 272 172.5 216.5 Q189 161 218 117.5 Q247 74 288 47 Q329 20 378 20 Q428 20 467.5 47 Q507 74 535 117.5 Q563 161 577.5 216.5 Q592 272 591 329 Q590 386 573.5 441.5 Q557 497 528 540.5 Q499 584 458.5 611 Q418 638 368 638 Q319 638 279 611 Q239 584 211 540.5 Q183 497 168.5 441.5 Q154 386 155 329 Z " />
<glyph glyph-name="R" unicode="R" horiz-adv-x="655" d="M39 7 L48 7 Q70 7 86 25 Q102 43 101 69 L93 588 Q93 615 77 634 Q61 653 38 653 L29 653 L29 660 L314 660 Q361 660 402 646.5 Q443 633 474 610 Q505 587 523.5 556 Q542 525 543 490 Q543 462 531.5 436.5 Q520 411 499 389.5 Q478 368 449 351.5 Q420 335 385 325 Q394 313 411.5 290 Q429 267 452.5 236 Q476 205 504.5 167 Q533 129 564 87 Q581 64 592 50.5 Q603 37 612 30.5 Q621 24 630.5 22 Q640 20 654 20 L654 0 L619 0 Q581 0 556 3.5 Q531 7 510.5 18 Q490 29 471 50 Q452 71 426 106 Q377 174 336 229.5 Q295 285 274 314 L200 314 L204 72 Q205 43 215 25 Q225 7 259 7 L268 7 L268 0 L40 0 L39 7 Z M295 339 Q325 339 351 351 Q377 363 395.5 383.5 Q414 404 425 431.5 Q436 459 436 490 Q435 520 425 546.5 Q415 573 398.5 592.5 Q382 612 360 623.5 Q338 635 314 635 L194 635 L199 339 L295 339 Z " />
<glyph glyph-name="S" unicode="S" horiz-adv-x="511" d="M411 481 Q401 525 383.5 556 Q366 587 344.5 606 Q323 625 298.5 633.5 Q274 642 249 642 Q215 642 184.5 628 Q154 614 133.5 591.5 Q113 569 107 540 Q101 511 116.5 481 Q132 451 172.5 422 Q213 393 285 370 Q358 347 399 310 Q440 273 454 230.5 Q468 188 457 144.5 Q446 101 415.5 66.5 Q385 32 337 10 Q289 -12 228 -12 Q185 -12 138 0.5 Q91 13 40 42 L38 179 L44 179 Q55 135 74.5 104 Q94 73 118.5 53.5 Q143 34 171 25.5 Q199 17 227 17 Q265 17 299.5 30.5 Q334 44 357.5 66.5 Q381 89 389 118 Q397 147 382.5 177 Q368 207 326 236.5 Q284 266 208 290 Q139 312 99 348.5 Q59 385 45 427 Q31 469 40 511.5 Q49 554 76.5 588.5 Q104 623 148.5 645 Q193 667 249 667 Q287 667 329 655.5 Q371 644 416 618 L418 481 L411 481 Z " />
<glyph glyph-name="T" unicode="T" horiz-adv-x="620" d="M605 506 Q599 529 591.5 551.5 Q584 574 571.5 592 Q559 610 539.5 621.5 Q520 633 491 633 L352 633 Q353 581 354 530.5 Q355 480 356 429 Q357 386 358 339 Q359 292 359.5 245 Q360 198 360 153.5 Q360 109 360 71 Q360 45 373 25.5 Q386 6 415 6 L424 6 L424 -1 L196 -1 L196 6 L205 6 Q227 6 242.5 23.5 Q258 41 258 67 Q258 210 255.5 350.5 Q253 491 249 634 L110 634 Q81 634 62.5 622.5 Q44 611 32 592.5 Q20 574 13 551.5 Q6 529 0 507 L-5 507 Q-4 530 -2.5 548 Q-1 566 0.5 583.5 Q2 601 3.5 619.5 Q5 638 6 660 L594 660 L609 507 L605 506 Z " />
<glyph glyph-name="U" unicode="U" horiz-adv-x="678" d="M248 654 L239 654 Q217 654 201 635.5 Q185 617 186 591 L192 195 Q192 161 202 131.5 Q212 102 232 79.5 Q252 57 281.5 44 Q311 31 349 31 Q396 31 430 44 Q464 57 487 79.5 Q510 102 521 131.5 Q532 161 532 195 L526 578 Q525 609 506 631 Q487 653 460 653 L449 653 L449 660 L627 660 L627 653 L616 653 Q591 653 573 632.5 Q555 612 556 583 L562 185 Q563 146 549 111.5 Q535 77 506 51 Q477 25 434 10 Q391 -5 334 -5 Q274 -5 229 12.5 Q184 30 153.5 60 Q123 90 107 130 Q91 170 90 215 L84 588 Q83 615 67.5 634 Q52 653 29 653 L20 653 L20 660 L248 660 L248 654 Z " />
<glyph glyph-name="V" unicode="V" horiz-adv-x="690" d="M234 653 L217 653 Q192 653 179 636 Q166 619 176 596 L379 118 L525 565 Q537 601 519.5 627 Q502 653 469 653 L454 653 L454 660 L647 660 L647 653 L638 653 Q615 653 593 634 Q571 615 562 588 L361 -15 L336 -15 L66 593 Q53 622 32 637.5 Q11 653 -12 653 L-12 660 L234 660 L234 653 Z " />
<glyph glyph-name="W" unicode="W" horiz-adv-x="1053" d="M21 660 L258 660 L259 653 L248 653 Q224 653 210 636.5 Q196 620 204 597 L364 128 L521 670 L546 670 L748 139 L874 590 Q882 616 867 634.5 Q852 653 826 653 L804 653 L804 660 L984 660 L984 653 Q957 653 934.5 638.5 Q912 624 904 595 L730 -15 L705 -15 L499 508 L348 -15 L323 -15 L96 588 Q85 618 64.5 635.5 Q44 653 21 653 L21 660 Z " />
<glyph glyph-name="X" unicode="X" horiz-adv-x="656" d="M592 652 Q563 652 534.5 635 Q506 618 486 587 Q452 533 419.5 480.5 Q387 428 354 374 L549 71 Q568 42 591 24 Q614 6 637 6 L637 -1 L394 -1 L394 6 L410 6 Q436 6 444 24 Q452 42 436 67 L293 290 L167 77 Q150 49 161.5 28 Q173 7 202 7 L215 7 L215 0 L26 0 L26 7 Q55 7 82 22.5 Q109 38 127 68 L278 315 L279 315 L104 588 Q89 611 67 632 Q45 653 16 653 L16 660 L259 660 L259 653 L243 653 Q217 653 209 635 Q201 617 217 592 L340 400 L453 593 Q467 618 458.5 635.5 Q450 653 424 653 L400 653 L400 660 L592 660 L592 652 Z " />
<glyph glyph-name="Y" unicode="Y" horiz-adv-x="632" d="M625 653 Q599 653 573 636 Q547 619 528 588 L360 316 L364 72 Q365 45 380.5 26 Q396 7 419 7 L428 7 L428 0 L200 0 L200 7 L209 7 Q231 7 246.5 24.5 Q262 42 262 68 L259 280 L78 588 Q64 613 44.5 633 Q25 653 -7 653 L-7 660 L235 660 L235 653 L224 653 Q199 653 192.5 634.5 Q186 616 200 590 L346 333 L489 568 Q511 603 504 628 Q497 653 465 653 L452 653 L452 660 L626 660 L625 653 Z " />
<glyph glyph-name="Z" unicode="Z" horiz-adv-x="588" d="M503 0 L39 0 L389 634 L184 634 Q160 634 141 625 Q122 616 106.5 602 Q91 588 79 569.5 Q67 551 58 532 L53 532 Q58 556 67 589.5 Q76 623 82 647 L85 660 L519 660 L169 27 L394 27 Q424 27 444.5 38 Q465 49 479.5 67 Q494 85 503.5 108 Q513 131 520 154 L529 154 L503 0 Z " />
<glyph glyph-name="a" unicode="a" horiz-adv-x="500" d="M487 37 Q468 17 437.5 3.5 Q407 -10 368 -10 Q339 -10 322 7.5 Q305 25 299 52 Q266 26 226.5 10 Q187 -6 153 -6 Q129 -6 107.5 2.5 Q86 11 69.5 26 Q53 41 43.5 61 Q34 81 34 103 Q34 123 47.5 144.5 Q61 166 84.5 185 Q108 204 139.5 219.5 Q171 235 207 244 Q224 249 248 252.5 Q272 256 293 259 Q293 285 292.5 306.5 Q292 328 292 343 Q291 352 291 360 Q291 368 291 375 Q290 420 272.5 450 Q255 480 230 480 Q199 480 172.5 455.5 Q146 431 140 395 L50 395 Q54 418 72 438 Q90 458 117 473 Q144 488 178 496.5 Q212 505 249 505 Q277 505 301.5 493 Q326 481 344.5 461 Q363 441 374 413.5 Q385 386 386 355 Q386 338 386 318.5 Q386 299 387 279 Q388 244 388.5 197.5 Q389 151 390 97 Q390 71 399.5 52 Q409 33 431 33 Q448 33 459 37.5 Q470 42 477 49 L487 37 Z M292 236 Q273 232 251 227 Q229 222 207 217 Q189 213 173.5 203.5 Q158 194 146.5 182 Q135 170 128.5 156 Q122 142 122 129 Q123 98 144.5 76.5 Q166 55 197 55 Q222 55 247.5 61 Q273 67 295 77 L292 236 Z " />
<glyph glyph-name="b" unicode="b" horiz-adv-x="589" d="M11 679 L145 720 L163 720 L167 465 Q182 473 201.5 480.5 Q221 488 242.5 493.5 Q264 499 286.5 502 Q309 505 328 505 Q369 505 405.5 485 Q442 465 469.5 430 Q497 395 513.5 349 Q530 303 531 250 Q532 198 513.5 151.5 Q495 105 463 70 Q431 35 387.5 15 Q344 -5 294 -5 Q275 -5 256 0.5 Q237 6 219 12 Q201 18 184.5 23.5 Q168 29 154 29 Q135 29 117.5 20.5 Q100 12 94 0 L84 0 L82 160 L74 627 Q71 659 56.5 667 Q42 675 10 675 L11 679 Z M294 20 Q324 20 350 35 Q376 50 395.5 76 Q415 102 426 136.5 Q437 171 437 210 Q436 263 421.5 309 Q407 355 383 390 Q359 425 327.5 445 Q296 465 260 465 Q232 465 205 460.5 Q178 456 167 450 L172 160 Q172 131 182 105.5 Q192 80 208.5 61 Q225 42 247 31 Q269 20 294 20 Z " />
<glyph glyph-name="c" unicode="c" horiz-adv-x="504" d="M452 64 Q436 50 411.5 37.5 Q387 25 359.5 15.5 Q332 6 304 0.5 Q276 -5 252 -5 Q210 -5 173 13.5 Q136 32 108 64 Q80 96 63.5 139 Q47 182 47 231 Q46 288 65 337.5 Q84 387 117.5 424.5 Q151 462 196.5 483.5 Q242 505 294 505 Q323 505 350 497 Q377 489 398 474.5 Q419 460 432.5 441 Q446 422 448 400 Q448 383 437 371.5 Q426 360 409 360 Q392 360 378.5 373 Q365 386 363 404 Q359 436 336.5 458 Q314 480 285 480 Q255 480 228 463 Q201 446 181.5 417 Q162 388 151 349 Q140 310 141 266 Q142 221 157 182 Q172 143 197 113.5 Q222 84 255.5 67 Q289 50 326 50 Q363 50 397.5 57 Q432 64 444 74 L452 64 Z " />
<glyph glyph-name="d" unicode="d" horiz-adv-x="606" d="M333 680 L467 721 L485 721 L495 93 Q498 61 512.5 53 Q527 45 559 45 L559 41 L425 0 L407 0 L406 52 Q391 40 372 29.5 Q353 19 332 11.5 Q311 4 290 -0.5 Q269 -5 250 -5 Q210 -5 174.5 13 Q139 31 112.5 61.5 Q86 92 70 133.5 Q54 175 53 221 Q52 280 69 331.5 Q86 383 116.5 421.5 Q147 460 188 482.5 Q229 505 276 505 Q309 505 342 490 Q375 475 400 452 Q399 500 398.5 544.5 Q398 589 397 627 Q394 659 379.5 667 Q365 675 333 675 L333 680 Z M405 67 Q403 155 403 242.5 Q403 330 401 418 Q381 444 345.5 462.5 Q310 481 273 481 Q246 481 222.5 463.5 Q199 446 181.5 415.5 Q164 385 154 344.5 Q144 304 145 257 Q146 215 158.5 177.5 Q171 140 191.5 112 Q212 84 239.5 67.5 Q267 51 298 51 Q332 51 362 55.5 Q392 60 405 67 Z " />
<glyph glyph-name="e" unicode="e" horiz-adv-x="510" d="M458 64 Q442 50 417.5 37.5 Q393 25 365 15.5 Q337 6 308.5 0.5 Q280 -5 255 -5 Q213 -5 175.5 13.5 Q138 32 109.5 64 Q81 96 64 139 Q47 182 47 231 Q46 288 63 337.5 Q80 387 110 424.5 Q140 462 181 483.5 Q222 505 269 505 Q307 505 340.5 490 Q374 475 399.5 449.5 Q425 424 440 389 Q455 354 455 315 L144 315 Q137 261 148.5 213 Q160 165 185.5 129 Q211 93 248 71.5 Q285 50 329 50 Q348 50 367 52 Q386 54 402.5 57 Q419 60 431.5 64.5 Q444 69 450 74 L458 64 Z M328 345 Q356 347 365 368.5 Q374 390 365 414.5 Q356 439 330.5 459.5 Q305 480 263 480 Q220 480 188.5 438.5 Q157 397 145 332 L328 345 Z " />
<glyph glyph-name="f" unicode="f" horiz-adv-x="431" d="M25 500 L100 500 Q102 550 114 590.5 Q126 631 151.5 660 Q177 689 216.5 704.5 Q256 720 313 720 Q336 720 356 715.5 Q376 711 392 702.5 Q408 694 417.5 683 Q427 672 428 660 Q428 643 417 631.5 Q406 620 389 620 Q372 620 358.5 631.5 Q345 643 343 660 Q341 674 329.5 680.5 Q318 687 302 687 Q297 687 293.5 686.5 Q290 686 285 685 Q274 683 258 672 Q242 661 227 641.5 Q212 622 201 595 Q190 568 190 533 L190 500 L325 500 L326 465 L191 465 L197 72 Q197 45 213 26 Q229 7 252 7 L261 7 L261 0 L45 0 L45 7 L54 7 Q76 7 90.5 24.5 Q105 42 107 68 L101 465 L26 465 L25 500 Z " />
<glyph glyph-name="g" unicode="g" horiz-adv-x="474" d="M466 451 L366 445 Q384 425 394.5 400.5 Q405 376 406 349 Q406 316 392.5 287.5 Q379 259 355.5 237.5 Q332 216 300 203.5 Q268 191 232 191 L177 191 Q146 191 124.5 174 Q103 157 103 134 Q103 113 128.5 98 Q154 83 189 83 Q199 84 208.5 84 Q218 84 226 85 Q240 85 254.5 85.5 Q269 86 274 86 Q311 86 344 76.5 Q377 67 401.5 50.5 Q426 34 440.5 12 Q455 -10 455 -35 Q455 -77 433.5 -114.5 Q412 -152 374.5 -180 Q337 -208 286.5 -224 Q236 -240 178 -240 Q147 -240 118.5 -231 Q90 -222 68.5 -206 Q47 -190 34.5 -169 Q22 -148 22 -124 Q22 -106 31.5 -88 Q41 -70 57.5 -53 Q74 -36 96.5 -21.5 Q119 -7 146 3 Q101 14 72.5 40 Q44 66 44 99 Q44 140 77 169.5 Q110 199 160 205 Q114 224 85 262.5 Q56 301 55 349 Q54 381 67.5 409.5 Q81 438 104.5 459.5 Q128 481 159.5 493.5 Q191 506 227 506 Q284 506 328 477 Q362 483 396.5 488.5 Q431 494 466 500 L466 451 Z M231 211 Q251 211 267 222 Q283 233 295 251.5 Q307 270 313.5 295.5 Q320 321 320 349 Q320 377 312.5 402 Q305 427 292.5 445.5 Q280 464 263 475 Q246 486 227 486 Q208 486 192 475 Q176 464 164 445.5 Q152 427 145.5 402 Q139 377 139 349 Q139 321 146.5 295.5 Q154 270 167 251.5 Q180 233 196.5 222 Q213 211 231 211 Z M169 -1 Q151 -7 135 -19 Q119 -31 107 -46 Q95 -61 88.5 -78.5 Q82 -96 82 -113 Q82 -134 90.5 -152.5 Q99 -171 113.5 -185 Q128 -199 147 -207 Q166 -215 187 -215 Q230 -215 267 -204.5 Q304 -194 331.5 -175.5 Q359 -157 374.5 -132.5 Q390 -108 390 -80 Q390 -64 379 -49 Q368 -34 348.5 -23.5 Q329 -13 304 -6.5 Q279 0 250 0 Q234 0 220 -0.5 Q206 -1 192 -1 Q186 -1 180 -1 Q174 -1 168 0 L169 -1 Z " />
<glyph glyph-name="h" unicode="h" horiz-adv-x="607" d="M36 678 L170 719 L188 719 L192 440 Q217 454 244 465.5 Q271 477 296.5 485.5 Q322 494 344 499 Q366 504 380 504 Q409 504 431.5 490.5 Q454 477 469 454.5 Q484 432 492 401.5 Q500 371 500 336 Q501 299 501 266.5 Q501 234 502 205 Q502 180 502.5 156.5 Q503 133 503 114 Q503 95 503.5 83.5 Q504 72 504 71 Q504 44 520 25 Q536 6 559 6 L568 6 L568 -1 L352 -1 L352 6 L361 6 Q383 6 398.5 23 Q414 40 414 66 Q414 132 413 196.5 Q412 261 409 327 Q408 375 384 409.5 Q360 444 312 444 Q278 444 244.5 439.5 Q211 435 192 428 L198 71 Q198 44 214 25 Q230 6 253 6 L262 6 L262 -1 L46 -1 L46 6 L55 6 Q77 6 92.5 23.5 Q108 41 107 67 L98 627 Q95 659 81 667 Q67 675 35 675 L36 678 Z " />
<glyph glyph-name="i" unicode="i" horiz-adv-x="306" d="M43 7 L52 7 Q75 7 90.5 25.5 Q106 44 106 70 Q106 71 105.5 95.5 Q105 120 104.5 155.5 Q104 191 103.5 232 Q103 273 102.5 308.5 Q102 344 101.5 367.5 Q101 391 101 391 Q100 412 97 424.5 Q94 437 87 444 Q80 451 68 453 Q56 455 38 455 L38 459 L172 500 L190 500 L197 72 Q198 45 213.5 26 Q229 7 252 7 L261 7 L261 0 L45 0 L43 7 Z M137 570 Q112 570 94.5 587.5 Q77 605 76 630 Q76 655 93.5 672.5 Q111 690 136 690 Q161 690 178.5 672.5 Q196 655 196 630 Q197 605 179.5 587.5 Q162 570 137 570 Z " />
<glyph glyph-name="j" unicode="j" horiz-adv-x="306" d="M38 459 L173 500 L191 500 Q192 485 193 444 Q194 403 195 351 Q196 299 197 242 Q198 185 198.5 138 Q199 91 199.5 59.5 Q200 28 200 27 Q200 -14 189 -48.5 Q178 -83 154.5 -114.5 Q131 -146 95.5 -175.5 Q60 -205 11 -236 L2 -224 Q31 -206 51.5 -185.5 Q72 -165 85.5 -138.5 Q99 -112 104.5 -77.5 Q110 -43 109 3 L103 391 Q103 433 88.5 444 Q74 455 38 455 L38 459 Z M140 570 Q115 570 97.5 587.5 Q80 605 79 630 Q79 655 96.5 672.5 Q114 690 139 690 Q164 690 181.5 672.5 Q199 655 199 630 Q200 605 182.5 587.5 Q165 570 140 570 Z " />
<glyph glyph-name="k" unicode="k" horiz-adv-x="544" d="M34 674 L35 677 L169 718 L187 718 L197 70 Q197 43 213 24 Q229 5 252 5 L261 5 L261 -2 L45 -2 L45 5 L54 5 Q76 5 90.5 22.5 Q105 40 106 66 L97 626 Q94 658 80 666 Q66 674 34 674 Z M355 438 Q375 461 376.5 477 Q378 493 361 493 L352 493 L352 500 L511 500 L511 493 L503 493 Q475 493 439.5 471 Q404 449 370.5 420.5 Q337 392 309.5 364 Q282 336 268 324 L465 72 Q488 42 519 24.5 Q550 7 579 7 L579 0 L346 0 L346 6 L354 6 Q374 6 375 22 Q376 38 360 62 L203 262 Q201 264 198.5 267.5 Q196 271 194 274 L355 438 Z " />
<glyph glyph-name="l" unicode="l" horiz-adv-x="306" d="M35 681 L170 722 L188 722 Q189 631 190 550.5 Q191 470 192 398 Q193 337 194 279 Q195 221 195.5 175.5 Q196 130 196.5 102 Q197 74 197 74 Q197 47 213 28 Q229 9 252 9 L261 9 L261 2 L45 2 L45 9 L54 9 Q76 9 90.5 26.5 Q105 44 107 70 Q106 117 105 187 Q104 257 102.5 334.5 Q101 412 100 489.5 Q99 567 98 629 Q95 660 81 667.5 Q67 675 35 675 L35 681 Z " />
<glyph glyph-name="m" unicode="m" horiz-adv-x="932" d="M38 460 L172 501 L192 501 L192 442 Q217 456 244 467.5 Q271 479 297 487.5 Q323 496 346 501 Q369 506 386 506 Q418 506 446.5 483 Q475 460 492 422 Q524 439 555 454.5 Q586 470 613.5 481.5 Q641 493 663 499.5 Q685 506 697 506 Q721 506 744 492.5 Q767 479 785 456.5 Q803 434 814 403.5 Q825 373 825 338 L829 73 Q830 46 845.5 27 Q861 8 884 8 L893 8 L893 1 L677 1 L677 8 L686 8 Q708 8 723.5 25 Q739 42 739 68 Q739 134 738 198.5 Q737 263 734 329 Q734 353 725 374.5 Q716 396 701.5 411.5 Q687 427 668 436.5 Q649 446 629 446 Q600 446 563 435 Q526 424 497 409 Q503 392 506.5 374.5 Q510 357 510 338 Q511 301 511 268.5 Q511 236 512 207 Q512 182 512.5 158.5 Q513 135 513 116 Q513 97 513.5 85.5 Q514 74 514 73 Q516 46 531 27 Q546 8 569 8 L578 8 L578 1 L362 1 L362 8 L371 8 Q393 8 408.5 25 Q424 42 424 68 Q424 134 423 198.5 Q422 263 419 329 Q419 355 410 377 Q401 399 387 415.5 Q373 432 354.5 441.5 Q336 451 317 451 Q281 451 247 445 Q213 439 193 430 L198 72 Q199 45 214.5 26 Q230 7 253 7 L262 7 L262 0 L46 0 L46 7 L55 7 Q77 7 93 25.5 Q109 44 108 70 L103 391 Q102 412 98.5 424.5 Q95 437 88 444 Q81 451 69 453 Q57 455 38 455 L38 460 Z " />
<glyph glyph-name="n" unicode="n" horiz-adv-x="607" d="M173 500 L193 500 L193 441 Q218 455 245 466.5 Q272 478 297.5 486.5 Q323 495 344.5 500 Q366 505 380 505 Q409 505 431 491.5 Q453 478 468.5 455.5 Q484 433 492 402.5 Q500 372 500 337 L504 72 Q505 45 520.5 26 Q536 7 559 7 L568 7 L568 0 L352 0 L352 7 L361 7 Q383 7 398.5 24 Q414 41 414 67 Q414 133 413 197.5 Q412 262 409 328 Q408 376 384 410.5 Q360 445 312 445 Q278 445 245 440.5 Q212 436 193 429 L198 72 Q199 45 214.5 26 Q230 7 253 7 L262 7 L262 0 L46 0 L46 7 L55 7 Q77 7 93 25.5 Q109 44 108 70 L103 391 Q102 412 98.5 424.5 Q95 437 88 444 Q81 451 69 453 Q57 455 38 455 L38 459 L173 500 Z " />
<glyph glyph-name="o" unicode="o" horiz-adv-x="600" d="M146 250 Q147 202 159.5 159 Q172 116 193 84 Q214 52 241.5 33.5 Q269 15 300 15 Q331 15 358 33.5 Q385 52 405 84 Q425 116 436 159 Q447 202 446 250 Q445 298 432.5 341 Q420 384 399.5 416 Q379 448 352 466.5 Q325 485 293 485 Q262 485 235 466.5 Q208 448 187.5 416 Q167 384 156 341 Q145 298 146 250 Z M46 250 Q45 303 64 349 Q83 395 116.5 430 Q150 465 195.5 485 Q241 505 292 505 Q345 505 390.5 485 Q436 465 470.5 430 Q505 395 525 349 Q545 303 546 250 Q547 198 528 151.5 Q509 105 475.5 70 Q442 35 397 15 Q352 -5 300 -5 Q249 -5 203 15 Q157 35 122.5 70 Q88 105 67.5 151.5 Q47 198 46 250 Z " />
<glyph glyph-name="p" unicode="p" horiz-adv-x="631" d="M48 -223 L59 -223 Q81 -223 96.5 -205 Q112 -187 111 -161 L103 391 Q102 412 98.5 424.5 Q95 437 88 444 Q81 451 69 453 Q57 455 38 455 L38 459 L172 500 L192 500 L192 427 Q208 444 230 458 Q252 472 276.5 482.5 Q301 493 326.5 499 Q352 505 374 505 Q414 505 449.5 486 Q485 467 512 434.5 Q539 402 555 358.5 Q571 315 572 265 Q573 210 554 160.5 Q535 111 501 74.5 Q467 38 421 16.5 Q375 -5 323 -5 Q288 -5 255.5 4 Q223 13 197 29 L200 -158 Q201 -185 216.5 -204 Q232 -223 255 -223 L264 -223 L264 -230 L48 -230 L48 -223 Z M198 134 Q201 110 212.5 89.5 Q224 69 241 53.5 Q258 38 280 29 Q302 20 326 20 Q360 20 389.5 34 Q419 48 441 72 Q463 96 475.5 128 Q488 160 487 196 Q486 247 471.5 292.5 Q457 338 433 372 Q409 406 377 425.5 Q345 445 309 445 Q277 445 245 435 Q213 425 194 410 L198 134 Z " />
<glyph glyph-name="q" unicode="q" horiz-adv-x="603" d="M422 470 Q439 470 455 478.5 Q471 487 477 499 L487 499 L497 -159 Q498 -186 513.5 -205 Q529 -224 552 -224 L561 -224 L561 -231 L345 -231 L345 -224 L354 -224 Q376 -224 391.5 -205.5 Q407 -187 407 -161 L404 57 Q388 44 367.5 32.5 Q347 21 325 13 Q303 5 280.5 0 Q258 -5 238 -5 Q200 -5 166.5 13 Q133 31 108 61.5 Q83 92 68 133.5 Q53 175 52 221 Q51 280 68 331.5 Q85 383 115.5 421.5 Q146 460 187.5 482.5 Q229 505 276 505 Q296 505 316 499.5 Q336 494 354.5 488 Q373 482 390 476.5 Q407 471 422 471 L422 470 Z M400 340 Q400 369 390 394.5 Q380 420 363.5 439 Q347 458 324.5 469 Q302 480 277 480 Q249 480 224.5 462.5 Q200 445 181.5 414.5 Q163 384 153 343.5 Q143 303 144 256 Q145 214 156.5 176.5 Q168 139 187.5 111 Q207 83 232.5 66.5 Q258 50 286 50 Q323 50 356.5 56.5 Q390 63 404 72 L400 340 Z " />
<glyph glyph-name="r" unicode="r" horiz-adv-x="417" d="M43 5 L52 5 Q75 5 90.5 23.5 Q106 42 106 68 Q106 69 105.5 93.5 Q105 118 104.5 153.5 Q104 189 103.5 230 Q103 271 102.5 306.5 Q102 342 101.5 365.5 Q101 389 101 389 Q100 410 97 422.5 Q94 435 87 442 Q80 449 68 451 Q56 453 38 453 L38 457 L172 498 L191 498 L191 427 Q206 443 223 457 Q240 471 257.5 481.5 Q275 492 291.5 498 Q308 504 322 504 Q360 504 380 486.5 Q400 469 400 445 Q401 427 388.5 414.5 Q376 402 358 402 Q347 402 333 407.5 Q319 413 304.5 419.5 Q290 426 276 431.5 Q262 437 251 437 Q237 437 220.5 430.5 Q204 424 192 414 Q193 375 194 329.5 Q195 284 195.5 237.5 Q196 191 196.5 148 Q197 105 197 72 Q197 45 213 26 Q229 7 252 7 L261 7 L261 0 L43 0 L43 5 Z " />
<glyph glyph-name="s" unicode="s" horiz-adv-x="422" d="M338 373 Q333 399 320.5 417 Q308 435 291 446.5 Q274 458 254.5 463.5 Q235 469 216 469 Q180 469 151 453.5 Q122 438 118.5 411.5 Q115 385 144.5 351.5 Q174 318 255 282 Q307 259 334 228.5 Q361 198 367.5 165.5 Q374 133 362 102 Q350 71 325 46.5 Q300 22 263 7 Q226 -8 183 -8 Q151 -8 116 1 Q81 10 46 31 L44 131 L49 131 Q65 75 101.5 52 Q138 29 178 29 Q217 29 249.5 47 Q282 65 292 93 Q302 121 281.5 154 Q261 187 192 218 Q137 243 105.5 274 Q74 305 62 337 Q50 369 55.5 399 Q61 429 81 452.5 Q101 476 133 490.5 Q165 505 205 505 Q236 505 270.5 495.5 Q305 486 342 464 L343 373 L338 373 Z " />
<glyph glyph-name="t" unicode="t" horiz-adv-x="352" d="M313 465 L178 465 Q179 427 179 390.5 Q179 354 180 319 Q180 289 180.5 258 Q181 227 181.5 197.5 Q182 168 182.5 142 Q183 116 183 97 Q183 60 205.5 45.5 Q228 31 255 31 Q275 31 294 37 Q313 43 324 52 L331 44 Q302 19 268 5 Q234 -9 202 -9 Q158 -9 126.5 19.5 Q95 48 93 113 Q93 131 92.5 156 Q92 181 91.5 209 Q91 237 90.5 267 Q90 297 90 325 Q89 359 89 393.5 Q89 428 88 465 L18 465 L18 475 Q35 478 54.5 492.5 Q74 507 93.5 529.5 Q113 552 130.5 580.5 Q148 609 160 640 L175 640 L177 500 L312 500 L313 465 Z " />
<glyph glyph-name="u" unicode="u" horiz-adv-x="572" d="M535 42 L401 1 L383 1 L382 62 Q350 34 306.5 15 Q263 -4 217 -4 Q185 -4 159 8.5 Q133 21 115 43 Q97 65 86.5 94 Q76 123 75 156 L70 439 Q69 462 52.5 478 Q36 494 16 494 L6 494 L6 501 L159 501 L165 165 Q166 120 198.5 87.5 Q231 55 286 55 Q320 55 344.5 61 Q369 67 382 76 L377 439 Q377 462 360 478 Q343 494 323 494 L313 494 L313 501 L466 501 Q468 398 469.5 297 Q471 196 473 93 Q476 61 490 53 Q504 45 536 45 L535 42 Z " />
<glyph glyph-name="v" unicode="v" horiz-adv-x="571" d="M430 443 Q438 464 427.5 478 Q417 492 398 492 L388 492 L388 499 L542 499 L542 492 Q512 492 488 475 Q464 458 453 429 L279 -11 L264 -11 L69 436 Q56 465 31.5 478.5 Q7 492 -20 492 L-20 499 L207 499 L207 492 L199 492 Q178 492 170.5 473 Q163 454 174 427 Q206 346 239.5 266 Q273 186 306 105 L430 443 Z " />
<glyph glyph-name="w" unicode="w" horiz-adv-x="879" d="M746 441 Q754 463 739.5 478.5 Q725 494 701 494 L679 494 L679 501 L859 501 L859 494 L850 494 Q828 494 804 475 Q780 456 769 429 L596 -9 L581 -9 L430 336 L297 -9 L282 -9 L86 438 Q58 493 12 493 L12 500 L239 500 L239 493 L229 493 Q203 493 192 474 Q181 455 192 428 L325 103 L420 359 L385 438 Q357 492 317 492 L317 499 L544 499 L544 492 L530 492 Q503 492 491.5 473 Q480 454 491 427 Q523 346 556.5 266 Q590 186 623 105 L746 441 Z " />
<glyph glyph-name="x" unicode="x" horiz-adv-x="557" d="M13 7 Q45 7 76.5 24 Q108 41 129 72 Q158 114 185.5 155 Q213 196 242 238 L109 434 Q88 462 65 477.5 Q42 493 19 493 L19 500 L251 500 L251 493 L241 493 Q216 493 210.5 474 Q205 455 224 428 Q242 400 261 372 Q280 344 299 315 L385 437 Q401 460 393.5 476.5 Q386 493 361 493 L345 493 L345 500 L518 500 L518 493 L510 493 Q499 493 485 488 Q471 483 457 474.5 Q443 466 429.5 454 Q416 442 406 428 L310 300 Q333 267 351.5 240 Q370 213 387.5 186.5 Q405 160 423.5 132.5 Q442 105 464 72 Q484 42 507.5 24.5 Q531 7 551 7 L551 0 L340 0 L340 7 L348 7 Q367 7 371.5 23.5 Q376 40 361 62 L254 220 L156 70 Q139 44 146 25.5 Q153 7 179 7 L212 7 L212 0 L13 0 L13 7 Z " />
<glyph glyph-name="y" unicode="y" horiz-adv-x="562" d="M112 -230 Q83 -230 62.5 -216.5 Q42 -203 42 -184 Q41 -168 54.5 -157 Q68 -146 87 -146 Q106 -146 120 -150.5 Q134 -155 144.5 -160 Q155 -165 163.5 -169.5 Q172 -174 180 -174 Q188 -174 197 -166.5 Q206 -159 218 -139 Q230 -119 246 -85 Q262 -51 285 3 L96 436 Q80 464 57 478 Q34 492 7 492 L7 499 L234 499 L234 492 L226 492 Q205 492 197.5 473 Q190 454 201 427 Q233 346 266.5 266 Q300 186 333 105 L457 443 Q465 464 454.5 478.5 Q444 493 425 493 L415 493 L415 500 L569 500 L569 493 L560 493 Q532 493 511 473.5 Q490 454 479 428 L306 -10 Q292 -43 276.5 -81.5 Q261 -120 239 -153 Q217 -186 187 -208 Q157 -230 113 -230 L112 -230 Z " />
<glyph glyph-name="z" unicode="z" horiz-adv-x="484" d="M437 141 Q434 126 431 107.5 Q428 89 425 70 Q422 51 419 33 Q416 15 413 0 L46 0 L312 480 L165 479 Q149 479 131.5 474 Q114 469 98 460 Q82 451 69.5 439 Q57 427 50 414 L44 403 L39 403 Q44 421 50 446.5 Q56 472 61 490 L63 500 L426 500 L162 20 L302 20 Q320 20 338.5 27 Q357 34 372.5 46.5 Q388 59 400 75.5 Q412 92 417 110 L428 147 L437 141 Z " />
</font>
</svg>
